<?xml version="1.0" standalone="no"?><!DOCTYPE svg PUBLIC "-//W3C//DTD SVG 1.1//EN" "http://www.w3.org/Graphics/SVG/1.1/DTD/svg11.dtd"><svg t="1739445879300" class="icon" viewBox="0 0 1024 1024" version="1.1" xmlns="http://www.w3.org/2000/svg" p-id="4451" xmlns:xlink="http://www.w3.org/1999/xlink" width="200" height="200"><path d="M620.1 775.3H214.2c-11 0-20-9-20-20V218.4c0-11 9-20 20-20h405.9c11 0 20 9 20 20v536.9c0 11-8.9 20-20 20z" fill="#F37C7E" p-id="4452"></path><path d="M620.1 795.3H214.2c-22.1 0-40-17.9-40-40V218.4c0-22.1 17.9-40 40-40h405.9c22.1 0 40 17.9 40 40v536.9c0 22.1-17.9 40-40 40zM214.2 218.4v536.9h405.9V218.4H214.2z" fill="#858585" p-id="4453"></path><path d="M699.8 851.5H293.9c-11 0-20-9-20-20V294.6c0-11 9-20 20-20h405.9c11 0 20 9 20 20v536.9c0 11-9 20-20 20z" fill="#F37C7E" p-id="4454"></path><path d="M699.8 871.5H293.9c-22.1 0-40-17.9-40-40V294.6c0-22.1 17.9-40 40-40h405.9c22.1 0 40 17.9 40 40v536.9c0 22.1-18 40-40 40zM293.9 294.6v536.9h405.9V294.6H293.9z" fill="#858585" p-id="4455"></path><path d="M591.6 422h-256c-11 0-20-9-20-20s9-20 20-20h256c11 0 20 9 20 20s-9 20-20 20zM591.6 550.2h-256c-11 0-20-9-20-20s9-20 20-20h256c11 0 20 9 20 20s-9 20-20 20z" fill="#F8F4B2" p-id="4456"></path></svg>